Patient4_TMGait_0pt6_02_right_36_EMG.mot
version=1
nRows=36
nColumns=33
inDegrees=no
endheader
time	1LAddLong	2LGlutMax	3LGlutMed	4LIliopsoas	5LSemiMemb	6LBicFemLong	7LRecFem	8LVastMed	9LVastLat	10LGasMed	11LTibAnt	12lTibPost	13LPeroneusLong	14LSol	15LExtDigLong	16LFlexDigLong	17RAddLong	18RGlutMax	19RGlutMed	20RIliopsoas	21RSemiMemb	22RBicFemLong	23RRecFem	24RVastMed	25RVastLat	26RGasMed	27RTibAnt	28RTibPost	29RPeroneusLong	30RSol	31RExtDigLong	32RFlexDigLong
44.608	0.009155	0.077057	0.045929	0.014954	0.0914	0.085907	0.10742	0.006714	-0.015106	0.30243	0.002747	0.27176	0.084839	-0.26825	0.18265	-0.14755	0.00351	-0.05188	0.044861	0.088654	0.003967	0.029755	0.0354	-0.072021	0.008392	-0.014954	0.13596	-0.005341	-0.20157	-0.054169	-0.004578	-0.003967
44.609	0.032349	0.090179	-0.024109	0.014038	0.068359	0.20569	0.007935	-0.000153	0.046844	-0.11581	-0.007019	-0.085602	0.1445	0.036316	0.2626	0.13199	-0.007477	-0.1004	0.013428	0.055695	-0.021057	0.067902	0.031586	-0.077972	0.000153	-0.020905	0.36835	-0.00412	-0.3363	0.014191	-0.002289	-0.010681
44.61	0.029449	0.059814	-0.082245	-0.000916	0.047302	0.16327	-0.090027	0.000153	0.051422	-0.54977	-0.045166	-0.066681	0.10895	0.000916	0.20248	-0.030365	-0.010071	-0.13306	-0.042419	-0.053253	-0.013275	0.04425	0.061035	-0.079193	0.01297	-0.026855	0.52689	-0.005798	-0.6929	0.027924	0.011749	-0.013275
44.611	0.02594	0.061798	-0.10162	-0.005798	0.056458	-0.016937	0.037994	-0.00885	0.036926	-0.24307	-0.051727	-0.020752	-0.011902	0.13214	-0.059204	-0.31708	0.021362	-0.14389	-0.060883	0.081787	0.012054	0.025787	0.037537	-0.077362	0.01297	-0.027313	0.82855	-0.005493	-0.26077	-0.016785	-0.003967	0.000763
44.612	0.014954	0.061798	-0.030975	-0.012054	0.011444	-0.23575	0.075684	-0.014496	0.010223	0.064697	-0.03067	-0.004272	-0.042114	0.34347	-0.10803	0.12497	0.028381	-0.1387	-0.042572	0.15457	0.017395	0.019989	0.071259	-0.044861	0.010071	-0.023499	0.13016	-0.004272	0.24796	-0.092926	0.001831	-0.004272
44.613	0.005493	0.005341	0.02533	-0.002289	-0.024719	-0.71808	0.096283	-0.006256	-0.023499	-0.042267	0.019989	0.005035	-0.061493	0.17334	-0.19073	0.033112	0.026703	-0.16861	-0.1384	0.088501	-0.028229	0.05127	0.025635	-0.05249	0.016022	-0.018616	-0.0177	-0.003967	0.26138	-0.09964	-0.001526	-0.000458
44.614	0.006104	0.025482	-0.007629	0.023804	-0.02655	-0.51285	0.070496	-0.001373	-0.014038	0.005035	0.009308	0.010529	-0.032501	-0.10635	-0.20554	-0.069275	0.043793	-0.13855	-0.12009	-0.056915	-0.034485	0.033264	0.046387	-0.04837	0.012512	-0.003357	0.14084	-0.002441	0.44357	-0.16434	0.010834	0.007172
44.615	0.005951	0.035553	0.009155	0.013275	0.005188	-0.09552	0.063782	0.002747	-0.016327	0.14587	-0.031281	0	-0.050659	-0.26367	-0.12451	-0.10346	0.079803	-0.1001	-0.10269	-0.19669	-0.027161	0.041809	0.047455	-0.055389	0.026245	-0.00946	-0.82077	-0.007019	0.18509	-0.16159	0.00061	0.00412
44.616	0.007782	0.020142	-0.022278	0.00946	-0.006714	0.21622	0.066986	-0.000153	0.067291	0.014954	0.017395	-0.002747	-0.077667	-0.26794	0.1062	-0.075378	0.054474	-0.10376	-0.20935	-0.11261	-0.059967	0.030975	0.062561	-0.093842	0.016022	-0.023193	-1.1368	-0.00824	0.31784	-0.003204	-0.003052	-0.000763
44.617	0.002899	-0.011902	-0.044098	-0.004883	0.00885	0.27863	0.064392	0.000153	0.12116	-0.18921	0.001068	0.034943	-0.095367	-0.18463	0.28839	-0.070953	-0.013733	-0.097809	-0.19562	0.002594	-0.05661	0.013733	0.066376	-0.09964	0.030212	-0.027924	-0.40176	-0.010071	0.12695	-0.046539	-0.001373	0.001068
44.618	-0.002899	0	-0.074615	-0.009766	0.059052	0.20584	0.08667	0.001373	0.065308	-0.28381	0.015869	0.037689	-0.079498	0.061951	0.19287	-0.041656	-0.037994	-0.059052	-0.14252	0.13336	-0.046692	0.012054	0.067444	-0.092316	0.018005	-0.025177	-0.092163	-0.004425	-0.094604	-0.16678	-0.00824	0.005188
44.619	0.001373	0.02533	-0.097809	-0.009766	0.077209	0.22659	0.10544	-0.003815	0.013885	-0.53345	0.10986	0.049286	-0.12283	0.074768	0.47134	-0.027771	-0.042419	-0.033417	-0.044556	0.24231	-0.035553	0.008545	0.061951	-0.073547	0.02594	-0.020599	-0.21179	-0.003357	-0.041199	-0.11276	0.000458	0.011444
44.62	0.00061	0.033112	-0.036774	0.004272	0.064697	0.19241	0.084686	0.000458	0.011597	-0.69443	0.1471	0.033722	-0.14145	0.15076	0.037994	-0.032654	-0.021973	-0.034485	0.048676	0.24292	-0.028992	0.013275	0.017853	-0.087585	0.018768	-0.022888	-0.040131	-0.002747	0.023041	-0.033112	-0.001221	0.007782
44.621	-0.001831	0.053253	0.060883	0.018311	0.009003	0.10819	0.10208	-0.00946	0.016479	-0.6723	0.09964	0.028534	-0.072021	0.22827	-0.08255	0.082855	0.005188	-0.14786	0.19424	0.10315	-0.015259	0.009613	0.041656	-0.06485	0.01358	-0.018311	-0.1239	-0.008545	0.14679	0.0737	0.000153	-0.000763
44.622	-0.006256	0.005493	0.1004	0.012512	-0.053558	-0.16403	0.088654	0.004272	0.003204	-0.35706	0.090179	0.016632	0.028839	0.34088	-0.13382	-0.36926	0.006409	-0.18036	0.027466	0.005188	-0.014954	0.00885	0.039825	-0.055237	0.010529	-0.023499	-0.4126	-0.00351	0.22842	0.19531	-0.001678	-0.001831
44.623	-0.010071	0.04715	0.020752	-0.006409	-0.054169	-0.33508	0.11093	0.003357	-0.006561	-0.13458	-0.068665	0.010529	0.05722	0.25635	-0.13886	0.28702	0.000763	-0.11581	-0.28748	-0.020294	0.020905	0.026703	0.021515	-0.007477	0.003357	-0.022278	-0.31586	-0.006256	0.27298	0.16144	-0.002136	0.000153
44.624	-0.009155	0.087585	-0.019531	0.00824	0.055695	-0.20599	0.10056	0.003052	-0.013428	0.23453	0.018768	0.014954	-0.048218	0.16312	0.12375	0.020142	0.029449	-0.047913	-0.43213	0.011444	0.034027	0.069122	-0.002594	-0.010223	0.030365	-0.016632	-0.27893	-0.009918	0.5777	0.09613	-0.002594	-0.01236
44.625	-0.019379	0.10849	0.011902	0.022736	0.063019	-0.28259	0.066681	0.009918	-0.013123	0.38696	0.1651	0.013428	-0.030518	0.001984	-0.33554	0.10193	0.037537	-0.010681	-0.27542	-0.04303	-0.043945	0.11581	0.004883	0.018005	0.024719	-0.014343	-0.21179	0	0.48782	0.021973	-0.001068	-0.021362
44.626	-0.016632	0.092773	0.081482	0.014801	0.050201	-0.18539	0.075378	0.00946	-0.008545	0.53162	0.084229	0.020447	0.023499	-0.087128	-0.24567	0.51941	0.02243	0.018768	-0.010986	-0.12177	-0.11963	0.085144	0.037689	-0.019989	0.000916	-0.013428	-0.095825	-0.001221	-0.13611	-0.043945	-0.004272	-0.010681
44.627	-0.016327	0.088501	0.025482	0.003815	0.007629	-0.15884	0.1178	0.006409	-0.006409	0.62302	-0.11185	0.029144	0.032349	0.13519	-0.046387	-1.2982	-0.008545	-0.027313	0.05127	-0.091705	-0.13214	0.06546	0.012054	-0.049591	-0.013275	-0.020752	0.007019	-0.001526	-0.21378	-0.009155	-0.004883	-0.014191
44.628	0.000305	0.075989	0.035553	0.01709	-0.04364	-0.12787	0.084534	0.011749	-0.021973	0.69275	-0.16663	0.015717	0.04715	0.22507	0.19073	-0.006104	-0.006866	-0.042877	-0.16861	-0.039063	-0.087585	0.052795	0.062561	-0.016022	0.010223	-0.026245	0.11993	-0.007019	-0.1889	0.023956	-0.00412	-0.016022
44.629	0.007477	0.063019	0.026398	0.012817	-0.082855	-0.075836	0.08255	0.005341	-0.031128	0.48614	0.10376	0.025482	0.12894	0.31128	-0.43396	0.41031	-0.017242	-0.019531	-0.11597	-0.016174	0.11581	0.076599	0.046539	-0.028839	0.007782	-0.018616	0.21378	-0.006714	-0.35645	0.04364	-0.00351	-0.019836
44.63	-0.0383	0.037079	0.01236	0.005798	-0.074768	-0.17654	0.090942	0.003204	-0.050812	0.45853	0.1004	0.032043	0.086823	0.24139	-0.21133	0.6282	-0.040436	-0.058746	-0.059967	0.001984	0.1651	0.063171	0.022888	0.040741	0.019836	-0.02182	0.18631	-0.003052	-0.38376	0.052795	-0.004578	-0.016022
44.631	0.085449	0.058899	-0.005188	0.006714	0.022888	-0.16083	0.15305	0.011292	-0.063019	-0.55664	-0.16342	0.050964	0.037384	0.25375	-0.336	-1.1601	-0.060883	-0.055542	-0.055695	0.006561	0.13245	0.071564	0.028229	0.03952	0.023651	-0.015259	0.13794	-0.002441	-0.26901	0.075226	-0.001984	-0.001831
44.632	0.020294	0.055695	-0.011139	0.014801	0.061798	-0.16632	0.17731	0.002899	-0.093079	-0.85907	-0.047302	0.062561	-0.10712	0.56244	-0.16968	0.48416	-0.009613	-0.028076	-0.24445	-0.034485	0.057678	0.069733	-0.023041	0.026245	0.004883	-0.022583	0.065613	-0.003204	-0.24292	0.066223	-0.004578	-0.00885
44.633	-0.005951	0.076904	-0.018311	0.010071	0.056915	-0.090637	0.1564	0.006866	-0.10284	-0.39841	-0.05127	0.049591	-0.12207	0.8081	0.13199	0.85648	-0.005798	0.048981	-0.40649	-0.079041	0.000763	0.03067	0.016022	0.040436	0.000458	-0.0177	-0.092163	-0.001831	-0.29572	0.061493	-0.001373	-0.010071
44.634	0.023956	0.062408	0.00061	0.005188	0.092773	0.015564	0.12512	0.009918	-0.046844	-0.079346	-0.080719	0.01709	-0.094147	0.85556	0.096283	-0.44281	0.027771	-0.010071	-0.38315	-0.043945	0.002594	0.031128	0.00946	0.013428	-0.00351	-0.018005	-0.14175	-0.000916	0.13794	0.001068	-0.001831	-0.006866
44.635	0.024261	0.050659	0.001526	-0.005951	0.087891	0.07782	0.14236	0.007324	-0.037537	0.3952	-0.014801	-0.007477	-0.10651	0.48462	-0.14297	-0.36255	0.039825	-0.023651	0.078735	0.0383	0.011902	0.033875	-0.006714	-0.01236	0.014801	-0.015869	-0.16342	-0.001526	0.16617	-0.009155	0.000153	-0.01236
44.636	0.012512	0.066223	-0.032959	0.009003	0.10864	0.089111	0.083618	0.005646	-0.007324	1.0951	-0.016937	-0.005341	-0.039825	-0.25589	-0.13657	0.41443	0.040741	-0.009308	0.76721	0.049591	0.012817	0.025482	-0.001984	-0.047302	0.02182	-0.014801	-0.034637	-0.007782	0.59616	0.021057	-0.001068	-0.017395
44.637	0.013733	0.062561	-0.022278	0.02121	0.11063	0.18372	-0.015106	0.007629	0.083618	1.4278	-0.02655	-0.034637	0.014801	-0.70923	-0.054321	0.98007	0.031586	-0.050201	0.45837	0.068512	0.006256	0.03952	0.002899	-0.027924	0.021667	-0.018768	-0.012207	-0.001373	0.18219	-0.012665	0.000763	-0.011139
44.638	-0.005646	0.070038	0.007629	-0.009918	0.081177	0.19745	-0.083008	0.011444	0.054626	0.51804	-0.092926	-0.007629	0.058441	-0.75943	0.21332	-0.20355	0.020447	-0.10025	0.025787	0.059814	0.007324	0.020142	0.02182	-0.004578	0.010071	-0.013733	-0.029602	-0.001373	-0.020142	-0.060577	-0.001831	-0.013885
44.639	-0.014648	0.065002	0.037537	-0.001068	0.032654	0.10819	-0.019379	-0.001831	0.091858	-0.018921	-0.077667	0.47165	0.043335	-1.3203	0.31845	-0.095825	0.016479	-0.072327	0.29846	-0.080261	0.008545	-0.00351	-0.013885	-0.015717	0.004272	-0.011444	0.083923	-0.006866	-0.025177	-0.052338	-0.000763	-0.012817
44.64	-0.019836	0.063019	0.061035	0.007935	-0.038605	0.025635	0.11749	-0.011139	0.007019	-0.35858	-0.065765	-0.22095	0.009766	-1.3857	-0.003967	-0.084991	-0.000153	-0.066223	0.27893	-0.081482	0.01709	-0.011444	0.02243	-0.038757	-0.002289	-0.007477	0.15198	0.002899	0.13321	-0.010223	-0.001068	-0.018463
44.641	-0.028076	0.08316	0.019836	0.004272	-0.075378	0.039825	0.14511	-0.007324	-0.092468	-0.83832	-0.084076	0.04837	-0.048218	-1.1569	0.010376	-0.046844	-0.014038	-0.058746	0.27771	-0.04303	0.054932	-0.032959	-0.016174	-0.021057	0.005341	-0.024872	0.15213	-0.001373	0.25543	0.011139	0.000916	-0.022888
44.642	-0.014496	0.10559	-0.000916	0.025787	-0.1152	-0.037231	0.19577	-0.007782	0.087433	-1.0103	-0.050049	0.005493	-0.083466	-0.66803	-0.11566	-0.28458	-0.036926	-0.018463	-0.13245	0.070343	0.045624	-0.036926	-0.018921	-0.008087	-0.001526	-0.020447	0.14832	0.001221	0.002289	-0.037231	-0.001373	-0.010071
44.643	0.009918	0.11841	-0.038147	0.012512	-0.007629	-0.16251	0.20996	-0.00885	0.10574	-0.89142	0.012512	0.001984	-0.095062	-0.18341	0.014801	-0.088043	-0.033722	0.029297	-0.457	0.11398	0.031281	0.062103	-0.020905	0.00412	0.019989	-0.013123	0.17242	0.001526	-0.24277	-0.085907	0.001221	-0.02243
